#!OML:ASF E:\Steps\Project 1\Capture day 1\Session 2\Subject.ASF
:FULLY-SPECIFIED
:DEGREES
295
root -1.04981 17.972 20.6197 -153.547 -10.4926 176.768
lowerback -26.5599 1.54498 -7.36419
upperback -1.60511 3.92461 -1.58579
thorax 12.6274 1.20046 3.78954
lowerneck -4.22485 0.777002 4.46094
upperneck 14.214 0.347011 -1.12949
head 4.97862 0.153388 -1.08168
rclavicle -2.39784e-014 5.9536e-014
rhumerus -42.9925 -14.1158 -82.1067
rradius 37.0043
rwrist -17.2767
rhand 2.14909 -66.1517
rfingers 7.12502
rthumb 27.6472 814.14
lclavicle -2.39784e-014 5.9536e-014
lhumerus -26.1578 -6.29915 86.2696
lradius 26.3462
lwrist 0.987709
lhand -22.6861 -11.382
lfingers 7.12502
lthumb 3.74619 18.5648
rfemur -21.7135 2.96616 19.5701
rtibia 5.66167
rfoot -18.9839 -5.69723
rtoes -7.95666
lfemur -24.1416 -8.28116 -23.4648
ltibia 7.28128
lfoot -5.24452 -8.95393
ltoes -32.6855
296
root -1.05138 17.9712 20.6209 -153.47 -10.5385 176.849
lowerback -26.8059 1.50328 -7.3013
upperback -1.62107 3.8546 -1.49371
thorax 12.7461 1.16043 3.84503
lowerneck -4.16865 0.785348 4.32933
upperneck 14.4214 0.340219 -1.03371
head 5.03252 0.144017 -1.03217
rclavicle 6.40832e-014 -6.55989e-015
rhumerus -42.8793 -14.142 -81.9376
rradius 36.6666
rwrist -16.987
rhand 1.9036 -66.4086
rfingers 7.12502
rthumb 27.4124 814.434
lclavicle 6.40832e-014 -6.55989e-015
lhumerus -26.1638 -6.08485 86.3991
lradius 26.2482
lwrist 0.91981
lhand -22.5693 -11.4707
lfingers 7.12502
lthumb 3.85904 18.4741
rfemur -21.8327 2.77322 19.6653
rtibia 5.64737
rfoot -18.8988 -5.33545
rtoes -6.62499
lfemur -24.2511 -8.73225 -23.2519
ltibia 7.2906
lfoot -5.28554 -8.4975
ltoes -32.0117
297
root -1.05138 17.969 20.6247 -153.342 -10.5434 176.936
lowerback -27.0233 1.50218 -7.21137
upperback -1.71326 3.81944 -1.47492
thorax 12.7625 1.1422 3.80923
lowerneck -4.02595 0.784244 4.23036
upperneck 14.6206 0.316705 -0.936061
head 5.06905 0.126483 -0.988487
rclavicle -4.83668e-014 3.4191e-014
rhumerus -42.706 -14.3084 -81.7481
rradius 36.1476
rwrist -16.3813
rhand 0.797965 -64.5582
rfingers 7.12502
rthumb 26.3545 812.747
lclavicle -4.83668e-014 3.4191e-014
lhumerus -26.3505 -6.16466 86.4989
lradius 26.212
lwrist 0.982007
lhand -22.5967 -11.5593
lfingers 7.12502
lthumb 3.83255 18.386
rfemur -22.0458 2.70564 19.755
rtibia 5.72861
rfoot -18.9533 -5.03286
rtoes -4.98901
lfemur -24.4495 -8.91317 -23.0945
ltibia 7.3478
lfoot -5.32322 -8.26271
ltoes -32.1726
298
root -1.04674 17.9672 20.6299 -153.235 -10.5771 177.002
lowerback -27.1624 1.48031 -7.19219
upperback -1.81156 3.77013 -1.44365
thorax 12.725 1.11641 3.81919
lowerneck -3.90585 0.77022 4.06752
upperneck 14.8216 0.277614 -0.817333
head 5.10931 0.0993511 -0.928528
rclavicle -2.81405e-014 -1.86858e-014
rhumerus -42.3802 -14.2269 -81.6691
rradius 35.4796
rwrist -16.0718
rhand 2.15184 -66.2964
rfingers 7.12502
rthumb 27.6498 814.284
lclavicle -2.81405e-014 -1.86858e-014
lhumerus -26.5095 -6.27745 86.6119
lradius 26.1007
lwrist 1.05649
lhand -22.6774 -11.779
lfingers 7.12502
lthumb 3.75467 18.1677
rfemur -22.2304 2.4836 19.89
rtibia 5.76628
rfoot -19.0324 -4.74481
rtoes -5.01449
lfemur -24.6492 -8.84644 -22.9996
ltibia 7.42307
lfoot -5.40805 -8.25144
ltoes -33.0189
299
root -1.04439 17.9667 20.6319 -153.197 -10.6588 177.038
lowerback -27.3276 1.39377 -7.16635
upperback -1.8128 3.65271 -1.39101
thorax 12.8229 1.05593 3.82961
lowerneck -3.88769 0.775659 3.87961
upperneck 15.0263 0.26855 -0.713098
head 5.16868 0.0862264 -0.867042
rclavicle 2.98798e-014 -1.55052e-014
rhumerus -41.9635 -14.0898 -81.6217
rradius 34.8905
rwrist -15.7074
rhand 1.53512 -65.0307
rfingers 7.12502
rthumb 27.0599 813.112
lclavicle 2.98798e-014 -1.55052e-014
lhumerus -26.4258 -5.92634 86.6196
lradius 25.7939
lwrist 0.859718
lhand -22.6002 -12.0167
lfingers 7.12502
lthumb 3.82916 17.9286
rfemur -22.2745 2.40359 19.9477
rtibia 5.70748
rfoot -18.9694 -4.67342
rtoes -5.647
lfemur -24.7176 -9.02295 -22.8755
ltibia 7.4034
lfoot -5.38623 -8.09618
ltoes -32.4672
300
root -1.04357 17.9654 20.6346 -153.127 -10.7083 177.014
lowerback -27.5223 1.28931 -7.1761
upperback -1.80385 3.52941 -1.37272
thorax 12.9496 0.98972 3.81948
lowerneck -3.88851 0.793521 3.73268
upperneck 15.2162 0.274567 -0.618692
head 5.22735 0.082425 -0.814346
rclavicle 9.65348e-015 -9.34288e-015
rhumerus -41.518 -14.2421 -81.4348
rradius 34.2528
rwrist -14.8127
rhand 1.28695 -64.9219
rfingers 7.12502
rthumb 26.8225 813.04
lclavicle 9.65348e-015 -9.34288e-015
lhumerus -26.2983 -5.55927 86.5878
lradius 25.4581
lwrist 0.775602
lhand -22.5236 -12.2152
lfingers 7.12502
lthumb 3.90319 17.7288
rfemur -22.361 2.46904 19.8999
rtibia 5.68916
rfoot -18.883 -4.74419
rtoes -5.68091
lfemur -24.8155 -9.20919 -22.8256
ltibia 7.43045
lfoot -5.28072 -8.01989
ltoes -30.4977
301
root -1.03976 17.9665 20.6399 -153.101 -10.7938 176.986
lowerback -27.5797 1.22254 -7.23274
upperback -1.83464 3.4554 -1.36799
thorax 12.948 0.950466 3.83139
lowerneck -3.85598 0.774169 3.63236
upperneck 15.4077 0.220836 -0.499632
head 5.27986 0.0526241 -0.765091
rclavicle 6.61456e-014 -5.06901e-015
rhumerus -41.2038 -14.7492 -81.0907
rradius 33.5837
rwrist -13.5807
rhand 1.01191 -63.524
rfingers 7.12502
rthumb 26.5593 811.682
lclavicle 6.61456e-014 -5.06901e-015
lhumerus -26.276 -5.54636 86.6411
lradius 25.2024
lwrist 0.751855
lhand -22.4504 -12.0919
lfingers 7.12502
lthumb 3.9738 17.8508
rfemur -22.3709 2.47782 19.9024
rtibia 5.62712
rfoot -18.8908 -4.94478
rtoes -6.1322
lfemur -24.9131 -9.20818 -22.8247
ltibia 7.53724
lfoot -5.20682 -8.15692
ltoes -29.8417
